HIERARCHY
ROOT Hips
{
	OFFSET 0.000000 0.000000 0.000000
	CHANNELS 6 Xposition Yposition Zposition Zrotation Xrotation Yrotation
	JOINT Spine
	{
		OFFSET 0.000001 1.152660 1.729000
		CHANNELS 3 Zrotation Xrotation Yrotation
		JOINT Spine1
		{
			OFFSET 0.000001 0.400320 2.270310
			CHANNELS 3 Zrotation Xrotation Yrotation
			JOINT Spine2
			{
				OFFSET 0.000001 0.200920 2.296560
				CHANNELS 3 Zrotation Xrotation Yrotation
				JOINT Spine3
				{
					OFFSET 0.000001 -0.000000 2.305330
					CHANNELS 3 Zrotation Xrotation Yrotation
					JOINT Neck
					{
						OFFSET 0.000002 -0.864494 6.051490
						CHANNELS 3 Zrotation Xrotation Yrotation
						JOINT Head
						{
							OFFSET 0.000001 -0.550431 3.121671
							CHANNELS 3 Zrotation Xrotation Yrotation
							End Site
							{
								OFFSET 0.000001 -0.000003 3.731750
							}
						}
					}
					JOINT RightShoulder
					{
						OFFSET -0.788279 -1.313802 4.256720
						CHANNELS 3 Zrotation Xrotation Yrotation
						JOINT RightArm
						{
							OFFSET -3.915130 0.000002 0.000003
							CHANNELS 3 Zrotation Xrotation Yrotation
							JOINT RightForeArm
							{
								OFFSET -6.914911 0.000003 0.000002
								CHANNELS 3 Zrotation Xrotation Yrotation
								JOINT RightHand
								{
									OFFSET -6.096219 0.000002 0.000002
									CHANNELS 3 Zrotation Xrotation Yrotation
									JOINT RightHandEnd
									{
										OFFSET -1.749950 0.000001 0.000001
										CHANNELS 3 Zrotation Xrotation Yrotation
										End Site
										{
											OFFSET -1.749950 0.000001 0.000001
										}
									}
									JOINT RightHandThumb1
									{
										OFFSET -0.699980 -1.166630 -0.466650
										CHANNELS 3 Zrotation Xrotation Yrotation
										End Site
										{
											OFFSET -1.690319 -0.452919 0.000001
										}
									}
								}
							}
						}
					}
					JOINT LeftShoulder
					{
						OFFSET 0.788281 -1.313803 4.256720
						CHANNELS 3 Zrotation Xrotation Yrotation
						JOINT LeftArm
						{
							OFFSET 3.915130 -0.000002 -0.000003
							CHANNELS 3 Zrotation Xrotation Yrotation
							JOINT LeftForeArm
							{
								OFFSET 6.914909 -0.000003 -0.000002
								CHANNELS 3 Zrotation Xrotation Yrotation
								JOINT LeftHand
								{
									OFFSET 6.096218 -0.000002 -0.000002
									CHANNELS 3 Zrotation Xrotation Yrotation
									JOINT LeftHandEnd
									{
										OFFSET 1.749950 -0.000001 -0.000001
										CHANNELS 3 Zrotation Xrotation Yrotation
										End Site
										{
											OFFSET 1.749950 -0.000001 -0.000001
										}
									}
									JOINT LeftHandThumb1
									{
										OFFSET 0.699980 -1.166630 -0.466650
										CHANNELS 3 Zrotation Xrotation Yrotation
										End Site
										{
											OFFSET 1.690319 -0.452921 -0.000001
										}
									}
								}
							}
						}
					}
				}
			}
		}
	}
	JOINT RightUpLeg
	{
		OFFSET -2.338570 0.000001 -0.683179
		CHANNELS 3 Zrotation Xrotation Yrotation
		JOINT RightLeg
		{
			OFFSET -0.000005 0.000007 -10.744960
			CHANNELS 3 Zrotation Xrotation Yrotation
			JOINT RightFoot
			{
				OFFSET -0.000005 0.000007 -10.930851
				CHANNELS 3 Zrotation Xrotation Yrotation
				JOINT RightToeBase
				{
					OFFSET -0.000002 -4.087270 -1.487650
					CHANNELS 3 Zrotation Xrotation Yrotation
					End Site
					{
						OFFSET -0.000001 -1.891870 -0.000008
					}
				}
			}
		}
	}
	JOINT LeftUpLeg
	{
		OFFSET 2.338570 -0.000001 -0.683181
		CHANNELS 3 Zrotation Xrotation Yrotation
		JOINT LeftLeg
		{
			OFFSET -0.000005 0.000007 -10.744960
			CHANNELS 3 Zrotation Xrotation Yrotation
			JOINT LeftFoot
			{
				OFFSET -0.000005 0.000007 -10.930849
				CHANNELS 3 Zrotation Xrotation Yrotation
				JOINT LeftToeBase
				{
					OFFSET -0.000002 -4.087269 -1.487650
					CHANNELS 3 Zrotation Xrotation Yrotation
					End Site
					{
						OFFSET -0.000001 -1.891870 -0.000008
					}
				}
			}
		}
	}
}
MOTION
Frames: 6
Frame Time: 0.04
-1.999998 -1.259122 24.959536 171.092141 6.591001 -2.668772 -1.185634 1.588699 4.295602 -2.160269 8.061971 10.227565 3.219889 -4.776867 2.630375 18.648863 -2.449447 -7.048370 -7.669091 -7.572497 -1.422181 -13.134915 6.814685 -5.585387 -5.683896 -6.850099 1.788751 -35.158819 -20.652648 -125.713060 4.070444 51.774671 -14.928302 -7.243153 27.274096 20.238004 0.000000 -0.000004 -0.000006 0.000006 0.000001 0.000000 2.512620 -6.199019 -1.069281 -9.638642 -27.203771 47.309708 3.002203 0.000000 -0.000007 35.899450 -46.431387 44.193346 -0.000007 0.000002 0.000004 -0.000000 0.000001 0.000002 2.793119 -24.243946 7.177417 -0.548042 6.340485 5.784144 11.199010 -6.023162 4.423279 -0.000002 4.916499 -0.000006 10.075813 -16.684684 -12.489293 -0.000003 5.186696 0.000000 7.473133 -4.492968 4.887210 0.000002 -2.894505 -0.000000 
-3.239889 0.181760 24.959534 171.092141 6.591001 -2.668772 -0.930984 0.608475 3.519096 -1.230405 4.946210 6.024789 3.219891 -4.776867 2.630375 13.772119 -4.584735 -5.360026 -6.035507 -4.405316 -0.031877 -12.302788 8.148981 -2.917219 -5.683895 -6.850096 1.788750 -33.747493 -11.306172 -101.308692 5.257740 52.517420 -17.907197 -7.243152 27.274091 20.238002 0.000003 -0.000003 -0.000002 0.000000 -0.000001 0.000004 2.512620 -6.199018 -1.069283 -13.107609 -10.023181 64.013674 1.637854 1.381019 3.617897 30.991693 -33.617218 17.241581 -4.616939 0.990762 2.870157 -2.634488 0.688881 1.624763 3.140124 -21.374853 9.765392 -0.443114 7.696188 8.378576 10.035726 -9.693675 4.327248 -0.000002 4.916496 -0.000006 10.019860 -13.803788 -10.625786 -1.032756 7.607460 2.109958 7.983952 -10.379266 4.953405 0.000002 -2.894501 0.000001 
-4.479781 1.622643 24.959534 171.092141 6.591001 -2.668772 -0.703113 -0.376323 2.743862 -0.766708 1.781445 1.880120 3.219889 -4.776864 2.630375 9.052044 -6.931987 -3.603887 -4.560364 -1.167289 1.354158 -11.631826 9.571580 -0.209446 -5.683896 -6.850097 1.788751 -32.336161 -1.959694 -76.904317 6.445030 53.260162 -20.886097 -7.243154 27.274089 20.238006 0.000001 -0.000001 -0.000003 -0.000003 0.000002 0.000004 2.512621 -6.199021 -1.069283 -16.576569 7.157409 80.717652 0.273503 2.762039 7.235795 29.481829 -20.481311 -6.400052 -9.233876 1.981528 5.740308 -5.281039 1.377411 3.249874 3.220476 -18.529612 12.279360 -0.464355 9.070955 10.994152 8.860762 -13.375746 4.249364 -0.000002 4.916497 -0.000004 9.786532 -10.943104 -8.819340 -2.245012 9.956456 4.245730 8.514434 -16.264728 5.075801 0.000003 -2.894499 0.000000 
-5.719672 3.063524 24.959534 171.092141 6.591001 -2.668772 -0.502064 -1.365144 1.969231 -0.764410 -1.381827 -2.244258 3.219890 -4.776864 2.630374 4.502173 -9.489254 -1.792555 -3.246429 2.135981 2.746706 -11.131581 11.070625 2.542175 -5.683897 -6.850099 1.788750 -30.924826 7.386788 -52.499949 7.632326 54.002908 -23.864993 -7.243153 27.274091 20.238006 -0.000001 0.000003 -0.000000 -0.000007 0.000004 0.000004 2.512620 -6.199025 -1.069284 -20.045535 24.337999 97.421631 -1.090847 4.143058 10.853694 29.224737 -6.981758 -28.051966 -13.850806 2.972293 8.610459 -7.939653 2.065242 4.875683 3.048641 -15.724380 14.742396 -0.614706 10.456100 13.635705 7.676511 -17.069304 4.188961 -0.000002 4.916496 -0.000003 9.383525 -8.110650 -7.055140 -3.635876 12.223811 6.415834 9.077806 -22.148785 5.261383 0.000002 -2.894497 0.000002 
-6.959563 4.504407 24.959532 171.092141 6.591001 -2.668772 -0.327903 -2.357447 1.194525 -1.219419 -4.493843 -6.385721 3.219892 -4.776864 2.630371 0.134152 -12.251343 0.064952 -2.097827 5.498624 4.157737 -10.811391 12.633315 5.343272 -5.683896 -6.850099 1.788751 -29.513486 16.733279 -28.095597 8.819612 54.745646 -26.843898 -7.243155 27.274089 20.238008 -0.000005 0.000008 -0.000000 -0.000011 0.000006 0.000004 2.512620 -6.199023 -1.069285 -23.514504 41.518586 114.125624 -2.455198 5.524075 14.471593 29.239343 7.308488 -47.752571 -18.467737 3.963055 11.480617 -10.610331 2.752020 6.502539 2.636468 -12.974563 17.174898 -0.896919 11.842680 16.308289 6.485292 -20.774270 4.145712 -0.000001 4.916499 -0.000009 8.816825 -5.314038 -5.319768 -5.204415 14.399646 8.627612 9.690508 -28.030738 5.521533 0.000002 -2.894495 0.000002 
-5.719672 3.063524 24.959534 171.092141 6.591001 -2.668772 -0.502064 -1.365144 1.969231 -0.764410 -1.381827 -2.244258 3.219891 -4.776864 2.630374 0.041405 -9.386259 -0.727517 -3.246429 2.135979 2.746706 -11.131579 11.070622 2.542176 -5.683897 -6.850098 1.788750 -30.924822 7.386789 -52.499962 7.632326 54.002911 -23.864997 -7.243153 27.274095 20.238004 -0.000003 0.000003 -0.000001 -0.000007 0.000002 0.000003 2.512620 -6.199022 -1.069284 -20.045538 24.338001 97.421638 -1.090848 4.143056 10.853696 29.224733 -6.981762 -28.051968 -13.850805 2.972287 8.610463 -7.939651 2.065242 4.875682 3.048641 -15.724380 14.742396 -0.614706 10.456100 13.635705 7.676509 -17.069307 4.188963 -0.000002 4.916497 -0.000001 9.383525 -8.110650 -7.055141 -3.635876 12.223809 6.415834 9.077807 -22.148785 5.261382 0.000002 -2.894498 0.000002 
